<!DOCTYPE svg PUBLIC "-//W3C//DTD SVG 1.1//EN" "http://www.w3.org/Graphics/SVG/1.1/DTD/svg11.dtd">
<!-- Uploaded to: SVG Repo, www.svgrepo.com, Transformed by: SVG Repo Mixer Tools -->
<svg fill="#ffffff" height="800px" width="800px" version="1.1" id="Layer_1" xmlns="http://www.w3.org/2000/svg" xmlns:xlink="http://www.w3.org/1999/xlink" viewBox="0 0 512 512" xml:space="preserve" stroke="#ffffff">
<g id="SVGRepo_bgCarrier" stroke-width="0"/>
<g id="SVGRepo_tracerCarrier" stroke-linecap="round" stroke-linejoin="round"/>
<g id="SVGRepo_iconCarrier"> <g> <g> <g> <path d="M93.867,452.267c0,4.71,3.814,8.533,8.533,8.533c28.237,0,51.2-22.963,51.2-51.2c0-4.71-3.814-8.533-8.533-8.533 c-4.719,0-8.533,3.823-8.533,8.533c0,18.825-15.309,34.133-34.133,34.133C97.681,443.733,93.867,447.556,93.867,452.267z"/> <path d="M153.6,320.998V85.333c0-28.237-22.963-51.2-51.2-51.2c-28.237,0-51.2,22.963-51.2,51.2v162.133 c0,4.71,3.814,8.533,8.533,8.533s8.533-3.823,8.533-8.533v-8.533H76.8c4.719,0,8.533-3.823,8.533-8.533s-3.814-8.533-8.533-8.533 h-8.533v-34.133H76.8c4.719,0,8.533-3.823,8.533-8.533s-3.814-8.533-8.533-8.533h-8.533v-34.133H76.8 c4.719,0,8.533-3.823,8.533-8.533s-3.814-8.533-8.533-8.533h-8.533V85.333c0-18.825,15.309-34.133,34.133-34.133 c18.825,0,34.133,15.309,34.133,34.133v240.725c0,3.209,1.792,6.144,4.642,7.603c28.715,14.694,46.558,43.793,46.558,75.938 c0,47.053-38.281,85.333-85.333,85.333S17.067,456.653,17.067,409.6c0-32.145,17.843-61.244,46.558-75.938 c2.85-1.459,4.642-4.395,4.642-7.603v-35.925h42.667c4.719,0,8.533-3.823,8.533-8.533s-3.814-8.533-8.533-8.533h-51.2 c-4.719,0-8.533,3.823-8.533,8.533v39.398C19.482,339.302,0,372.787,0,409.6C0,466.065,45.935,512,102.4,512 c56.465,0,102.4-45.935,102.4-102.4C204.8,372.787,185.318,339.302,153.6,320.998z"/> <path d="M503.467,153.6h-30.601l11.034-11.034c3.336-3.337,3.336-8.73,0-12.066c-3.337-3.337-8.73-3.337-12.066,0l-23.1,23.1 h-27.068l28.1-28.1c3.337-3.337,3.337-8.73,0-12.066s-8.73-3.337-12.066,0L397.534,153.6h-10.001l-8.533-8.533l59.733-59.733 h13.534c4.719,0,8.533-3.823,8.533-8.533s-3.814-8.533-8.533-8.533h-8.533v-8.533c0-4.71-3.814-8.533-8.533-8.533 s-8.533,3.823-8.533,8.533v13.534l-59.733,59.733l-8.533-8.533v-10.001L398.566,74.3c3.337-3.337,3.337-8.73,0-12.066 c-3.337-3.336-8.73-3.336-12.066,0l-28.1,28.1V63.266l23.1-23.1c3.337-3.336,3.337-8.73,0-12.066s-8.73-3.337-12.066,0 L358.4,39.134V8.533c0-4.71-3.814-8.533-8.533-8.533s-8.533,3.823-8.533,8.533v30.601L330.3,28.1 c-3.337-3.337-8.73-3.337-12.066,0c-3.337,3.337-3.337,8.73,0,12.066l23.1,23.1v27.068l-28.1-28.1 c-3.337-3.336-8.73-3.336-12.066,0c-3.336,3.337-3.336,8.73,0,12.066l40.166,40.166v10.001l-8.533,8.533l-59.733-59.733V59.733 c0-4.71-3.814-8.533-8.533-8.533S256,55.023,256,59.733v8.533h-8.533c-4.719,0-8.533,3.823-8.533,8.533s3.814,8.533,8.533,8.533 h13.534l59.733,59.733l-8.533,8.533h-10.001l-40.166-40.166c-3.337-3.337-8.73-3.337-12.066,0c-3.336,3.337-3.336,8.73,0,12.066 l28.1,28.1H251l-23.1-23.1c-3.336-3.337-8.73-3.337-12.066,0c-3.337,3.336-3.337,8.73,0,12.066l11.034,11.034h-30.601 c-4.719,0-8.533,3.823-8.533,8.533c0,4.71,3.814,8.533,8.533,8.533h30.601L215.834,181.7c-3.337,3.337-3.337,8.73,0,12.066 c1.664,1.664,3.849,2.5,6.033,2.5c2.185,0,4.369-0.836,6.033-2.5l23.1-23.1h27.068l-28.1,28.1c-3.336,3.336-3.336,8.73,0,12.066 c1.664,1.664,3.849,2.5,6.033,2.5c2.185,0,4.369-0.836,6.033-2.5l40.166-40.166h10.001l8.533,8.533l-59.733,59.733h-13.534 c-4.719,0-8.533,3.823-8.533,8.533s3.814,8.533,8.533,8.533H256v8.533c0,4.71,3.814,8.533,8.533,8.533s8.533-3.823,8.533-8.533 v-13.534l59.733-59.733l8.533,8.533v10.001l-40.166,40.166c-3.336,3.337-3.336,8.73,0,12.066c3.337,3.337,8.73,3.337,12.066,0 l28.1-28.1v27.068l-23.1,23.1c-3.337,3.337-3.337,8.73,0,12.066c3.336,3.336,8.73,3.336,12.066,0l11.034-11.034v30.601 c0,4.719,3.814,8.533,8.533,8.533s8.533-3.814,8.533-8.533v-30.601l11.034,11.034c1.664,1.664,3.849,2.5,6.033,2.5 c2.185,0,4.369-0.836,6.033-2.5c3.337-3.337,3.337-8.73,0-12.066l-23.1-23.1v-27.068l28.1,28.1c1.664,1.664,3.849,2.5,6.033,2.5 c2.185,0,4.369-0.836,6.033-2.5c3.337-3.337,3.337-8.73,0-12.066L358.4,209.801v-10.001l8.533-8.533l59.733,59.733v13.534 c0,4.71,3.814,8.533,8.533,8.533s8.533-3.823,8.533-8.533V256h8.533c4.719,0,8.533-3.823,8.533-8.533s-3.814-8.533-8.533-8.533 h-13.534L378.999,179.2l8.533-8.533h10.001l40.166,40.166c1.664,1.664,3.849,2.5,6.033,2.5c2.185,0,4.369-0.836,6.033-2.5 c3.337-3.337,3.337-8.73,0-12.066l-28.1-28.1h27.068l23.1,23.1c1.664,1.664,3.849,2.5,6.033,2.5s4.369-0.836,6.033-2.5 c3.336-3.337,3.336-8.73,0-12.066l-11.034-11.034h30.601c4.719,0,8.533-3.823,8.533-8.533 C512,157.423,508.186,153.6,503.467,153.6z M349.867,184.201l-22.067-22.067l22.067-22.067l22.067,22.067L349.867,184.201z"/> </g> </g> </g> </g>
</svg>