<!DOCTYPE svg PUBLIC "-//W3C//DTD SVG 1.1//EN" "http://www.w3.org/Graphics/SVG/1.1/DTD/svg11.dtd">
<!-- Uploaded to: SVG Repo, www.svgrepo.com, Transformed by: SVG Repo Mixer Tools -->
<svg fill="#ffffff" height="800px" width="800px" version="1.1" id="Layer_1" xmlns="http://www.w3.org/2000/svg" xmlns:xlink="http://www.w3.org/1999/xlink" viewBox="0 0 512 512" xml:space="preserve" stroke="#ffffff">
<g id="SVGRepo_bgCarrier" stroke-width="0"/>
<g id="SVGRepo_tracerCarrier" stroke-linecap="round" stroke-linejoin="round"/>
<g id="SVGRepo_iconCarrier"> <g> <g> <g> <path d="M204.745,59.639c1.067,0.444,2.176,0.649,3.268,0.649c3.337,0,6.519-1.98,7.876-5.265l6.537-15.77 c1.801-4.352-0.265-9.344-4.617-11.153c-4.344-1.792-9.344,0.256-11.153,4.617l-6.528,15.77 C198.327,52.838,200.393,57.83,204.745,59.639z"/> <path d="M162.291,51.2c4.719,0,8.533-3.823,8.533-8.533V8.533c0-4.719-3.814-8.533-8.533-8.533s-8.533,3.814-8.533,8.533v34.133 C153.758,47.377,157.572,51.2,162.291,51.2z"/> <path d="M246.771,86.195c2.176,0,4.361-0.836,6.033-2.5l24.141-24.141c3.328-3.328,3.328-8.73,0-12.066 c-3.337-3.336-8.738-3.336-12.066,0l-24.141,24.141c-3.336,3.328-3.336,8.73,0,12.066 C242.402,85.359,244.587,86.195,246.771,86.195z"/> <path d="M108.693,55.023c1.357,3.285,4.54,5.274,7.885,5.274c1.092,0,2.202-0.213,3.268-0.657 c4.343-1.801,6.417-6.793,4.617-11.145l-6.536-15.778c-1.801-4.361-6.81-6.409-11.153-4.617 c-4.343,1.809-6.417,6.801-4.617,11.153L108.693,55.023z"/> <path d="M458.62,254.524c22.639,15.991,36.156,42.061,36.156,69.743c0,21.854-8.26,42.65-23.253,58.539 c-3.234,3.43-3.081,8.832,0.35,12.066c1.647,1.553,3.755,2.321,5.854,2.321c2.27,0,4.523-0.896,6.212-2.68 c17.997-19.072,27.904-44.023,27.904-70.246c0-33.212-16.213-64.495-43.375-83.686c-3.866-2.722-9.173-1.801-11.887,2.048 C453.85,246.477,454.771,251.802,458.62,254.524z"/> <path d="M193.924,145.852c-2.62,3.908-1.579,9.216,2.33,11.836c3.908,2.645,9.216,1.587,11.836-2.321 c22.281-33.169,59.273-52.975,98.953-52.975c65.877,0,119.467,53.598,119.467,119.475c0,10.82-1.442,21.538-4.292,31.855 c-1.254,4.548,1.408,9.242,5.948,10.496c0.768,0.213,1.527,0.316,2.287,0.316c3.746,0,7.177-2.483,8.218-6.263 c3.26-11.802,4.907-24.047,4.907-36.403c0-75.29-61.252-136.542-136.533-136.542C261.67,85.325,219.379,107.955,193.924,145.852z "/> <path d="M381.402,163.524c-3.951,2.569-5.069,7.851-2.492,11.802c9.02,13.841,13.781,29.935,13.781,46.541 c0,4.71,3.814,8.533,8.533,8.533s8.533-3.823,8.533-8.533c0-19.917-5.726-39.236-16.546-55.851 C390.643,162.065,385.361,160.947,381.402,163.524z"/> <path d="M136.691,170.658c23.569,0,45.5,9.404,61.773,26.47c3.251,3.405,8.644,3.533,12.075,0.282 c3.405-3.251,3.533-8.653,0.282-12.058c-19.524-20.48-45.85-31.753-74.129-31.753c-56.465,0-102.4,45.935-102.4,102.391 c0,6.289,0.58,12.578,1.698,18.688c0.759,4.113,4.352,6.98,8.388,6.98c0.512,0,1.033-0.043,1.553-0.137 c4.634-0.853,7.706-5.308,6.844-9.941c-0.939-5.094-1.417-10.334-1.417-15.59C51.358,208.939,89.647,170.658,136.691,170.658z"/> <path d="M71.787,83.695c1.664,1.664,3.849,2.5,6.033,2.5c2.185,0,4.369-0.836,6.033-2.5c3.328-3.337,3.328-8.738,0-12.066 L59.712,47.488c-3.337-3.336-8.738-3.336-12.066,0c-3.336,3.337-3.336,8.738,0,12.066L71.787,83.695z"/> <path d="M375.309,443.725H161.975c-4.719,0-8.533,3.823-8.533,8.533c0,4.719,3.814,8.533,8.533,8.533h213.333 c9.412,0,17.067,7.654,17.067,17.075c0,9.412-7.654,17.067-17.067,17.067c-4.565,0-8.858-1.783-12.083-5.009 c-3.337-3.337-8.73-3.337-12.066-0.009c-3.337,3.337-3.337,8.738,0,12.075c6.451,6.451,15.027,10.01,24.149,10.01 c18.825,0,34.133-15.317,34.133-34.133C409.442,459.042,394.133,443.725,375.309,443.725z"/> <path d="M97.66,199.996c-12.638,8.823-22.016,21.777-26.402,36.489c-1.348,4.523,1.229,9.276,5.743,10.624 c0.811,0.239,1.638,0.35,2.432,0.35c3.686,0,7.074-2.389,8.175-6.093c3.294-11.034,10.325-20.753,19.823-27.366 c3.866-2.697,4.804-8.021,2.116-11.887C106.85,198.255,101.542,197.291,97.66,199.996z"/> <path d="M409.442,366.925c0-32.93-26.803-59.725-59.733-59.725s-59.733,26.795-59.733,59.725c0,4.719,3.814,8.533,8.533,8.533 s8.533-3.814,8.533-8.533c0-23.518,19.14-42.658,42.667-42.658c23.526,0,42.667,19.14,42.667,42.658 c0,23.526-19.14,42.667-42.667,42.667H127.842c-4.719,0-8.533,3.823-8.533,8.533c0,4.719,3.814,8.533,8.533,8.533h221.867 C382.639,426.658,409.442,399.863,409.442,366.925z"/> <path d="M460.642,409.591h-42.667c-4.719,0-8.533,3.823-8.533,8.533c0,4.719,3.814,8.533,8.533,8.533h42.667 c18.825,0,34.133,15.317,34.133,34.133c0,18.825-15.309,34.142-34.133,34.142c-9.242,0-17.894-3.635-24.363-10.24 c-3.319-3.371-8.721-3.413-12.066-0.111c-3.371,3.294-3.422,8.704-0.119,12.066c9.711,9.899,22.69,15.351,36.548,15.351 c28.237,0,51.2-22.972,51.2-51.208C511.842,432.563,488.879,409.591,460.642,409.591z"/> <path d="M76.983,153.293c0.58,0.12,1.152,0.171,1.715,0.171c3.968,0,7.526-2.782,8.354-6.818 c7.27-35.533,38.912-61.312,75.238-61.312c16.794,0,32.742,5.325,46.123,15.394c3.789,2.825,9.131,2.074,11.955-1.69 c2.833-3.763,2.082-9.114-1.681-11.947c-16.367-12.314-35.874-18.825-56.397-18.825c-44.39,0-83.063,31.522-91.955,74.957 C69.389,147.84,72.367,152.354,76.983,153.293z"/> <path d="M32.892,117.76l15.77,6.528c1.067,0.444,2.176,0.657,3.268,0.657c3.337,0,6.519-1.988,7.876-5.274 c1.801-4.352-0.265-9.344-4.617-11.145l-15.761-6.528c-4.343-1.792-9.344,0.256-11.153,4.617 C26.475,110.967,28.54,115.959,32.892,117.76z"/> <path d="M93.709,409.591H68.425c-28.228,0-51.2-22.963-51.2-51.2c0-28.228,22.972-51.191,51.2-51.191 c4.719,0,8.533-3.823,8.533-8.533c0-4.719-3.814-8.533-8.533-8.533c-37.641,0-68.267,30.618-68.267,68.258 c0,37.649,30.626,68.267,68.267,68.267h25.284c4.719,0,8.533-3.814,8.533-8.533C102.242,413.414,98.428,409.591,93.709,409.591z"/> <path d="M8.691,170.667h34.133c4.719,0,8.533-3.823,8.533-8.533c0-4.71-3.823-8.533-8.533-8.533H8.691 c-4.719,0-8.533,3.823-8.533,8.533C0.158,166.852,3.981,170.667,8.691,170.667z"/> </g> </g> </g> </g>
</svg>